<?xml version="1.0" encoding="UTF-8"?>
<svg width="20px" height="20px" viewBox="0 0 20 20" version="1.1" xmlns="http://www.w3.org/2000/svg" xmlns:xlink="http://www.w3.org/1999/xlink">
    <!-- Generator: Sketch 54.1 (76490) - https://sketchapp.com -->
    <title>icon_file_xls</title>
    <desc>Created with Sketch.</desc>
    <g id="Iconography" stroke="none" stroke-width="1" fill="none" fill-rule="evenodd">
        <g id="Icon-2" transform="translate(-542.000000, -335.000000)">
            <g id="3.file-format/xls_24px" transform="translate(540.000000, 333.000000)">
                <rect id="ICON-Copy-5" x="0" y="0" width="24" height="24"></rect>
                <path d="M2,2 L22,2 L22,22 L2,22 L2,2 Z M14.1354582,16.8239437 C14.2151394,16.9471831 14.247012,17 14.3426295,17 L15.8406375,17 C15.936255,17 16,16.9295775 16,16.8239437 L12.9243028,11.9823944 L16,7.17605634 C16,7.07042254 15.936255,7 15.8406375,7 L14.3426295,7 C14.247012,7 14.2151394,7.0528169 14.1354582,7.17605634 L12,10.5035211 L9.86454183,7.17605634 C9.78486056,7.0528169 9.75298805,7 9.65737052,7 L8.15936255,7 C8.06374502,7 8,7.07042254 8,7.17605634 L11.0756972,11.9823944 L8,16.8239437 C8,16.9295775 8.06374502,17 8.15936255,17 L9.65737052,17 C9.75298805,17 9.78486056,16.9471831 9.86454183,16.8239437 L12,13.4788732 L14.1354582,16.8239437 Z" id="ic_xls" fill="#1A6D40" fill-rule="evenodd"></path>
            </g>
        </g>
    </g>
</svg>