<?xml version="1.0" encoding="UTF-8"?>
<svg width="12px" height="12px" viewBox="0 0 12 12" version="1.1" xmlns="http://www.w3.org/2000/svg" xmlns:xlink="http://www.w3.org/1999/xlink">
    <!-- Generator: Sketch 55.2 (78181) - https://sketchapp.com -->
    <title>icon</title>
    <desc>Created with Sketch.</desc>
    <defs>
        <path d="M4,6 L6.66666667,6 L6.66666667,0 L4,0 L4,6 Z M0,7.33333333 L2.66666667,7.33333333 L2.66666667,4.66666667 L0,4.66666667 L0,7.33333333 Z M8,3.33333333 L8,8 L10.6666667,8 L10.6666667,3.33333333 L8,3.33333333 Z" id="path-1"></path>
        <path d="M4,4.66666667 L6.66666667,4.66666667 L6.66666667,0 L4,0 L4,4.66666667 Z M0,4.66666667 L2.66666667,4.66666667 L2.66666667,1.33333333 L0,1.33333333 L0,4.66666667 Z M8,2 L8,4.66666667 L10.6666667,4.66666667 L10.6666667,2 L8,2 Z" id="path-3"></path>
    </defs>
    <g id="01_Dashboard-" stroke="none" stroke-width="1" fill="none" fill-rule="evenodd">
        <g id="1.7.2_Dashboard-Edit---Edit-widget" transform="translate(-996.000000, -515.000000)">
            <g id="Group-2" transform="translate(961.000000, 52.000000)">
                <g id="Segment_1st/Selected" transform="translate(25.000000, 453.000000)">
                    <g id="text-2" transform="translate(8.000000, 8.000000)">
                        <g id="icon" transform="translate(2.000000, 2.000000)">
                            <g id="Group-2" transform="translate(0.666667, 0.666667)">
                                <mask id="mask-2" fill="white">
                                    <use xlink:href="#path-1"></use>
                                </mask>
                                <g id="av/equalizer_24px-copy" fill-rule="nonzero"></g>
                                <g id="color#Icon/white" opacity="0.5" mask="url(#mask-2)">
                                    <g transform="translate(-2.666667, -2.666667)" id="color##Palette/White">
                                        <g>
                                            <rect id="Rectangle-Copy-338" fill="#FFFFFF" x="0" y="0" width="16" height="16"></rect>
                                        </g>
                                    </g>
                                </g>
                            </g>
                            <g id="Group-" transform="translate(0.666667, 6.666667)">
                                <mask id="mask-4" fill="white">
                                    <use xlink:href="#path-3"></use>
                                </mask>
                                <g id="av/equalizer_24px" fill-rule="nonzero"></g>
                                <g id="color#Icon/white" mask="url(#mask-4)">
                                    <g transform="translate(-2.666667, -8.666667)" id="color##Palette/White">
                                        <g>
                                            <rect id="Rectangle-Copy-338" fill="#FFFFFF" x="0" y="0" width="16" height="16"></rect>
                                        </g>
                                    </g>
                                </g>
                            </g>
                        </g>
                    </g>
                </g>
            </g>
        </g>
    </g>
</svg>