<?xml version="1.0" encoding="UTF-8"?>
<svg width="22px" height="14px" viewBox="0 0 22 14" version="1.1" xmlns="http://www.w3.org/2000/svg" xmlns:xlink="http://www.w3.org/1999/xlink">
    <!-- Generator: Sketch 54.1 (76490) - https://sketchapp.com -->
    <title>icon_vendor_alibaba</title>
    <desc>Created with Sketch.</desc>
    <g id="Iconography" stroke="none" stroke-width="1" fill="none" fill-rule="evenodd">
        <g id="Icon-2" transform="translate(-349.000000, -213.000000)">
            <g id="2.vendor/alibaba_24px" transform="translate(348.000000, 208.000000)">
                <rect id="ICON-Copy-3" x="0" y="0" width="24" height="24"></rect>
                <g id="Group-8" stroke-width="1" fill-rule="evenodd" transform="translate(1.000000, 5.000000)" fill="#373C41">
                    <path d="M8.89704444,11.8458316 L3.95519259,10.7406787 C3.50378519,10.6334311 3.16482222,10.2279011 3.14445185,9.73774612 C3.14282222,9.7235023 3.14282222,4.2764977 3.14445185,4.26309175 C3.16482222,3.77209887 3.50378519,3.36656891 3.95519259,3.25932132 L8.89704444,2.15500628 L9.42748889,0 L3.66756296,0 C1.64763704,0 0.00822962963,1.6790951 8.14814815e-05,3.75450356 L8.14814815e-05,10.2454964 C0.00822962963,12.3209049 1.64763704,14 3.66756296,14 L9.42748889,14 L8.89704444,11.8458316 Z" id="Fill-1"></path>
                    <path d="M13.1039333,11.8458316 L18.0457852,10.7406787 C18.4963778,10.6334311 18.8353407,10.2279011 18.8557111,9.73774612 C18.8581556,9.7235023 18.8581556,4.2764977 18.8557111,4.26309175 C18.8353407,3.77209887 18.4963778,3.36656891 18.0457852,3.25932132 L13.1039333,2.15500628 L12.5734889,0 L18.3334148,0 C20.3533407,0 21.9927481,1.6790951 22.0000815,3.75450356 L22.0000815,10.2454964 C21.9927481,12.3209049 20.3533407,14 18.3334148,14 L12.5734889,14 L13.1039333,11.8458316 Z" id="Fill-3"></path>
                    <polygon id="Fill-6" points="9 7.5 13 7.5 13 6.5 9 6.5"></polygon>
                </g>
            </g>
        </g>
    </g>
</svg>