<?xml version="1.0" encoding="UTF-8"?>
<svg width="22px" height="18px" viewBox="0 0 22 18" version="1.1" xmlns="http://www.w3.org/2000/svg" xmlns:xlink="http://www.w3.org/1999/xlink">
    <!-- Generator: Sketch 54.1 (76490) - https://sketchapp.com -->
    <title>icon_vendor_gcp</title>
    <desc>Created with Sketch.</desc>
    <g id="Iconography" stroke="none" stroke-width="1" fill="none" fill-rule="evenodd">
        <g id="Icon-2" transform="translate(-413.000000, -211.000000)">
            <g id="2.vendor/gcp_24px" transform="translate(412.000000, 208.000000)">
                <rect id="ICON-Copy-4" x="0" y="0" width="24" height="24"></rect>
                <g id="Group-2" stroke-width="1" fill-rule="evenodd" transform="translate(1.000000, 3.000000)">
                    <path d="M13.8701659,4.84408842 L14.5368325,4.84408842 L16.4368325,2.94408842 L16.5301659,2.13742175 C14.3173122,0.184278584 11.2527905,-0.487778108 8.42566925,0.36008694 C5.59854803,1.20795199 3.40963774,3.45553412 2.63683252,6.30408842 C2.84850103,6.21732943 3.08297549,6.20326096 3.30349919,6.26408842 L7.10349919,5.63742175 C7.10349919,5.63742175 7.29683252,5.31742175 7.39683252,5.33742175 C9.08716773,3.48099955 11.931855,3.26465128 13.8834992,4.84408842 L13.8701659,4.84408842 Z" id="Shape" fill="#EA4335" fill-rule="nonzero"></path>
                    <path d="M19.1434992,6.30408842 C18.7067748,4.69584377 17.8101051,3.25005077 16.5634992,2.14408842 L13.8968325,4.81075509 C15.0228756,5.7308384 15.6642853,7.11687314 15.6368325,8.57075509 L15.6368325,9.04408842 C16.9475883,9.04408842 18.0101659,10.1066659 18.0101659,11.4174218 C18.0101659,12.7281776 16.9475883,13.7907551 15.6368325,13.7907551 L10.8901659,13.7907551 L10.4168325,14.2707551 L10.4168325,17.1174218 L10.8901659,17.5907551 L15.6368325,17.5907551 C18.3583924,17.6119438 20.7727311,15.84833 21.5802446,13.2492419 C22.3877581,10.6501537 21.397901,7.82888667 19.1434992,6.30408842 Z" id="Shape" fill="#4285F4" fill-rule="nonzero"></path>
                    <path d="M6.13683252,17.5640884 L10.8834992,17.5640884 L10.8834992,13.7640884 L6.13683252,13.7640884 C5.79865402,13.7640137 5.46444121,13.6912599 5.15683252,13.5507551 L4.49016585,13.7574218 L2.57683252,15.6574218 L2.41016585,16.3240884 C3.48312042,17.1342931 4.79235156,17.5699228 6.13683252,17.5640884 L6.13683252,17.5640884 Z" id="Shape" fill="#34A853" fill-rule="nonzero"></path>
                    <path d="M6.13683252,5.23742175 C3.50022119,5.25317177 1.16464728,6.94171726 0.32318964,9.44050025 C-0.518268004,11.9392832 0.320154185,14.6966623 2.41016585,16.3040884 L5.16349919,13.5507551 C4.20152062,13.1161361 3.64221548,12.0983905 3.79103207,11.0533307 C3.93984866,10.0082709 4.76101498,9.18710456 5.80607481,9.03828797 C6.85113464,8.88947138 7.86888019,9.44877652 8.30349919,10.4107551 L11.0568325,7.65742175 C9.88535734,6.12593666 8.06498019,5.2305479 6.13683252,5.23742175 Z" id="Shape" fill="#FBBC05" fill-rule="nonzero"></path>
                </g>
            </g>
        </g>
    </g>
</svg>