<svg xmlns="http://www.w3.org/2000/svg" xmlns:xlink="http://www.w3.org/1999/xlink" width="64" height="64" viewBox="0 0 64 64">
    <defs>
        <path id="a" d="M25.875.375H9.75a3.56 3.56 0 0 0-3.297 2.186l-5.41 12.631A3.54 3.54 0 0 0 .791 16.5v3.422l.018.018-.018.143a3.594 3.594 0 0 0 3.583 3.584H15.68l-1.702 8.188-.053.573c0 .735.304 1.415.788 1.9l1.9 1.88 11.806-11.807a3.56 3.56 0 0 0 1.04-2.526V3.958A3.594 3.594 0 0 0 25.874.375zm7.167 0v21.5h7.166V.375h-7.166z"/>
    </defs>
    <g fill="none" fill-rule="evenodd">
        <circle cx="32" cy="32" r="32" fill="#FF2D47"/>
        <g transform="translate(12 16)">
            <mask id="b" fill="#fff">
                <use xlink:href="#a"/>
            </mask>
            <g mask="url(#b)">
                <path fill="#FFF" d="M-1-5h43v43H-1z"/>
            </g>
        </g>
    </g>
</svg>
