<?xml version="1.0" encoding="UTF-8"?>
<svg width="12px" height="12px" viewBox="0 0 12 12" version="1.1" xmlns="http://www.w3.org/2000/svg" xmlns:xlink="http://www.w3.org/1999/xlink">
    <!-- Generator: Sketch 55.2 (78181) - https://sketchapp.com -->
    <title>0.material_fav/action/autorenew_24px</title>
    <desc>Created with Sketch.</desc>
    <defs>
        <path d="M3.735,10.74 L4.4,10.08 L6.305,11.985 L5.975,12 C2.83,12 0.255,9.58 -7.10542736e-15,6.5 L0.75,6.5 C0.93,8.38 2.1,9.97 3.735,10.74 Z M5.975,0 C9.12,0 11.695,2.42 11.945,5.495 L11.195,5.495 C11.02,3.615 9.85,2.03 8.215,1.255 L7.55,1.92 L5.645,0.015 L5.975,0 Z M6.16824165,5.57222222 C7.06018664,5.80166667 8.015,6.17888889 8.015,7.28333333 C8.015,8.08055556 7.40596267,8.52 6.63975442,8.66388889 L6.63975442,9.5 L5.4609725,9.5 L5.4609725,8.65611111 C4.70655206,8.49666667 4.06215128,8.01833333 4.015,7.16666667 L4.87944008,7.16666667 C4.92266208,7.62555556 5.2409332,7.98333333 6.05036346,7.98333333 C6.91873281,7.98333333 7.11126719,7.55555556 7.11126719,7.28722222 C7.11126719,6.92555556 6.91480354,6.58333333 5.93248527,6.35 C4.83621807,6.08944444 4.08572692,5.64222222 4.08572692,4.74388889 C4.08572692,3.99333333 4.69869352,3.50333333 5.4609725,3.34 L5.4609725,2.5 L6.63975442,2.5 L6.63975442,3.35166667 C7.4609725,3.55 7.87354617,4.16444444 7.90105108,4.83333333 L7.03268173,4.83333333 C7.00910609,4.34722222 6.74977407,4.01666667 6.05036346,4.01666667 C5.38631631,4.01666667 4.98945972,4.31222222 4.98945972,4.73611111 C4.98945972,5.10555556 5.27629666,5.34277778 6.16824165,5.57222222 Z" id="path-1"></path>
    </defs>
    <g id="Symbols" stroke="none" stroke-width="1" fill="none" fill-rule="evenodd">
        <g id="03_ORGANIC/Billing/Summary/Up" transform="translate(-296.000000, -160.000000)">
            <g id="1.material_custom/currency-swap" transform="translate(296.000000, 160.000000)">
                <mask id="mask-2" fill="white">
                    <use xlink:href="#path-1"></use>
                </mask>
                <use id="Combined-Shape" fill="#000000" fill-rule="nonzero" xlink:href="#path-1"></use>
                <g id="color#Icon/idle" mask="url(#mask-2)" fill="#898D94" fill-rule="evenodd">
                    <g id="color##Palette/#Gray/*Gray-1">
                        <rect id="Rectangle-Copy-340" x="0" y="2.84217094e-14" width="12" height="12"></rect>
                    </g>
                </g>
            </g>
        </g>
    </g>
</svg>