<?xml version="1.0" encoding="UTF-8"?>
<svg width="20px" height="20px" viewBox="0 0 20 20" version="1.1" xmlns="http://www.w3.org/2000/svg" xmlns:xlink="http://www.w3.org/1999/xlink">
    <!-- Generator: Sketch 54.1 (76490) - https://sketchapp.com -->
    <title>icon_file_doc</title>
    <desc>Created with Sketch.</desc>
    <g id="Iconography" stroke="none" stroke-width="1" fill="none" fill-rule="evenodd">
        <g id="Icon-2" transform="translate(-414.000000, -335.000000)">
            <g id="3.file-format/doc_24px" transform="translate(412.000000, 333.000000)">
                <rect id="ICON-Copy-3" x="0" y="0" width="24" height="24"></rect>
                <path d="M2,2 L22,2 L22,22 L2,22 L2,2 Z M12,12.0736842 C12.066482,12.0736842 12.0831025,12.1052632 12.1495845,12.1684211 L14.6925208,16.9526316 C14.7257618,16.9684211 14.7756233,17 14.8088643,17 C14.8421053,17 14.8919668,16.9684211 14.9252078,16.9526316 C15.9722992,14.0315789 16.9695291,11.0789474 18,8.15789474 C18,8.06315789 17.933518,8 17.833795,8 L16.5041551,8 C16.4044321,8 16.3878116,8.04736842 16.3213296,8.15789474 L14.5096953,13.4315789 L12.166205,8.53684211 C12.099723,8.45789474 12.0498615,8.42631579 12,8.42631579 C11.9501385,8.42631579 11.900277,8.45789474 11.833795,8.53684211 L9.49030471,13.4 L7.67867036,8.15789474 C7.61218837,8.04736842 7.59556787,8 7.49584488,8 L6.16620499,8 C6.06648199,8 6,8.06315789 6,8.15789474 C7.03047091,11.0789474 8.02770083,14.0315789 9.07479224,16.9526316 C9.10803324,16.9684211 9.15789474,17 9.19113573,17 C9.22437673,17 9.27423823,16.9684211 9.30747922,16.9526316 L11.8504155,12.1684211 C11.9168975,12.1052632 11.933518,12.0736842 12,12.0736842 Z" id="ic_doc" fill="#2B5797" fill-rule="evenodd"></path>
            </g>
        </g>
    </g>
</svg>