<svg xmlns="http://www.w3.org/2000/svg" xmlns:xlink="http://www.w3.org/1999/xlink" width="64" height="64" viewBox="0 0 64 64">
    <defs>
        <path id="a" d="M.792 36.625h7.166v-21.5H.792v21.5zm39.416-19.708a3.594 3.594 0 0 0-3.583-3.584H25.32l1.702-8.188.053-.573c0-.735-.304-1.415-.788-1.9l-1.9-1.88L12.6 12.599a3.503 3.503 0 0 0-1.057 2.526v17.917a3.594 3.594 0 0 0 3.583 3.583H31.25a3.56 3.56 0 0 0 3.297-2.186l5.41-12.631a3.54 3.54 0 0 0 .251-1.308v-3.422l-.018-.018.018-.143z"/>
    </defs>
    <g fill="none" fill-rule="evenodd">
        <circle cx="32" cy="32" r="31.5" fill="#FFF" stroke="#D5DAE0"/>
        <g transform="translate(12 12)">
            <mask id="b" fill="#fff">
                <use xlink:href="#a"/>
            </mask>
            <g mask="url(#b)">
                <path fill="#898D94" d="M-1-1h43v43H-1z"/>
            </g>
        </g>
    </g>
</svg>
