<svg xmlns="http://www.w3.org/2000/svg" xmlns:xlink="http://www.w3.org/1999/xlink" width="18" height="18" viewBox="0 0 18 18">
    <defs>
        <path id="a" d="M8.167 14h1.666v-1.667H8.167V14zM9 .667A8.336 8.336 0 0 0 .667 9c0 4.6 3.733 8.333 8.333 8.333S17.333 13.6 17.333 9 13.6.667 9 .667zm0 15A6.676 6.676 0 0 1 2.333 9 6.676 6.676 0 0 1 9 2.333 6.676 6.676 0 0 1 15.667 9 6.676 6.676 0 0 1 9 15.667zM9 4a3.332 3.332 0 0 0-3.333 3.333h1.666c0-.916.75-1.666 1.667-1.666s1.667.75 1.667 1.666c0 1.667-2.5 1.459-2.5 4.167h1.666c0-1.875 2.5-2.083 2.5-4.167A3.332 3.332 0 0 0 9 4z"/>
    </defs>
    <g fill="none" fill-rule="evenodd">
        <path d="M-2-2h22v22H-2z"/>
        <g>
            <mask id="b" fill="#fff">
                <use xlink:href="#a"/>
            </mask>
            <g mask="url(#b)">
                <path fill="#B0B7BF" d="M-1-1h20v20H-1z"/>
            </g>
        </g>
    </g>
</svg>
