<svg xmlns="http://www.w3.org/2000/svg" xmlns:xlink="http://www.w3.org/1999/xlink" width="14" height="18" viewBox="0 0 14 18">
    <defs>
        <path id="a" d="M12 .667H2c-.917 0-1.667.75-1.667 1.666v13.334c0 .916.75 1.666 1.667 1.666h10c.917 0 1.667-.75 1.667-1.666V2.333c0-.916-.75-1.666-1.667-1.666zM4.5 2.333h1.667V6.5l-.834-.625L4.5 6.5V2.333zM12 15.667H2V2.333h.833v7.5l2.5-1.875 2.5 1.875v-7.5H12v13.334z"/>
    </defs>
    <g fill="none" fill-rule="evenodd">
        <path d="M-2-2h18v22H-2z"/>
        <g>
            <mask id="b" fill="#fff">
                <use xlink:href="#a"/>
            </mask>
            <use fill="#000" fill-rule="nonzero" xlink:href="#a"/>
            <g mask="url(#b)">
                <path fill="#B0B7BF" d="M-3-1h20v20H-3z"/>
            </g>
        </g>
    </g>
</svg>
