
<svg width="24px" height="23px" viewBox="0 0 24 23" version="1.1" xmlns="http://www.w3.org/2000/svg" xmlns:xlink="http://www.w3.org/1999/xlink">
    <!-- Generator: Sketch 48.2 (47327) - http://www.bohemiancoding.com/sketch -->
    <desc>Created with Sketch.</desc>
    <defs></defs>
    <g id="클라우드계정관리_20171121" stroke="none" stroke-width="1" fill="none" fill-rule="evenodd">
        <g id="AWS_클라우드-계정-관리" transform="translate(-1028.000000, -600.000000)" fill="#FF2D47" fill-rule="nonzero">
            <path d="M1051.50064,619.163485 L1042.12702,602.295788 C1041.54132,601.240622 1040.77079,600.714286 1039.99785,600.714286 C1039.22492,600.714286 1038.45439,601.240622 1037.86868,602.295788 L1028.50707,619.163485 C1027.32366,621.273818 1028.28383,623 1030.63624,623 L1049.35947,623 C1051.71188,623 1052.67204,621.273818 1051.50064,619.163485 Z M1038.77844,609.217979 L1041.21966,609.217979 L1041.21966,615.119927 L1038.77604,615.119927 L1038.77604,609.217979 L1038.77844,609.217979 Z M1040.00025,618.946465 C1039.26183,618.946465 1038.66322,618.324397 1038.66322,617.557037 C1038.66322,616.789678 1039.26183,616.16761 1040.00025,616.16761 C1040.73868,616.16761 1041.33728,616.789678 1041.33728,617.557037 C1041.33792,617.926401 1041.19701,618.280827 1040.94568,618.542007 C1040.69435,618.803187 1040.35329,618.949623 1039.99785,618.948959 L1040.00025,618.946465 Z" id="Shape"></path>
        </g>
    </g>
</svg>
