
<svg width="20px" height="20px" viewBox="0 0 20 20" version="1.1" xmlns="http://www.w3.org/2000/svg" xmlns:xlink="http://www.w3.org/1999/xlink">
    <!-- Generator: Sketch 47.1 (45422) - http://www.bohemiancoding.com/sketch -->
    <desc>Created with Sketch.</desc>
    <defs></defs>
    <g id="Page-1" stroke="none" stroke-width="1" fill="none" fill-rule="evenodd">
        <g id="PO_Dashboard_신청전" transform="translate(-650.000000, -244.000000)" fill="#1886FF">
            <path d="M660,264 C654.477153,264 650,259.522847 650,254 C650,248.477153 654.477153,244 660,244 C665.522847,244 670,248.477153 670,254 C670,259.522847 665.522847,264 660,264 Z M660,262.5 C664.69442,262.5 668.5,258.69442 668.5,254 C668.5,249.30558 664.69442,245.5 660,245.5 C655.30558,245.5 651.5,249.30558 651.5,254 C651.5,258.69442 655.30558,262.5 660,262.5 Z M662.526058,253.314677 C662.396301,253.494227 662.258046,253.666744 662.1115,253.83113 C662.016152,253.932223 661.889712,254.061006 661.73218,254.21792 C661.574648,254.374614 661.440538,254.511529 661.330058,254.628885 C661.219371,254.746241 661.13107,254.844916 661.064741,254.925571 C660.878397,255.198522 660.787402,255.532129 660.807715,255.868373 L660.809788,256.558442 L659.193012,256.558442 L659.193012,255.631024 C659.174979,255.319614 659.220994,255.007544 659.327743,254.716792 C659.487555,254.42582 659.688201,254.16166 659.922634,253.93442 L660.959029,252.835584 C661.179781,252.579116 661.29793,252.241993 661.288603,251.89498 C661.298345,251.547088 661.174185,251.209746 660.944519,250.960969 C660.710501,250.711313 660.389012,250.576816 660.057365,250.589562 C659.721988,250.578354 659.395523,250.706039 659.14741,250.945585 C658.901785,251.19568 658.753788,251.534562 658.732852,251.89498 L657,251.89498 C657.055551,251.077446 657.413107,250.315952 657.994939,249.776423 C658.591488,249.251619 659.348678,248.97647 660.123695,249.002842 C660.876532,248.969438 661.614652,249.2314 662.196485,249.739063 C662.731264,250.229803 662.998654,250.915477 662.998654,251.796085 C663.016895,252.345942 662.849206,252.884372 662.526058,253.314677 Z M660.003473,259.999998 C659.381843,260.001316 658.877119,259.467941 658.875875,258.808859 C658.874631,258.149777 659.377697,257.614424 659.999327,257.613325 L660.0014,257.613325 C660.622201,257.613325 661.125681,258.14626 661.126925,258.804464 C661.127961,259.463546 660.625102,259.998679 660.003473,259.999998" id="ico_help"></path>
        </g>
    </g>
</svg>
