<?xml version="1.0" encoding="UTF-8"?>
<svg width="20px" height="20px" viewBox="0 0 20 20" version="1.1" xmlns="http://www.w3.org/2000/svg" xmlns:xlink="http://www.w3.org/1999/xlink">
    <title>돋보기 모양의 아이콘</title>
    <defs>
        <!-- <style> -->
        <!--     g { display: none } -->
        <!--     g:target, -->
        <!--     g:target g { display: inline } --> 
        <!-- </style> -->
    </defs>
    <g id="blue" stroke="none" stroke-width="1" fill="none" fill-rule="evenodd">
        <g transform="translate(-754.000000, -295.000000)" fill="#1886FF">
            <g transform="translate(754.000000, 295.000000)">
                <g>
                    <g>
                        <g>
                            <path d="M10,20 C4.48580793,20 0,15.5141921 0,10 C0,4.48580793 4.48580793,0 10,0 C15.5141921,0 20,4.48580793 20,10 C20,15.5141921 15.5141921,20 10,20 Z M10,2 C5.5888039,2 2,5.5888039 2,10 C2,14.4111961 5.5888039,18 10,18 C14.4111961,18 18,14.4111961 18,10 C18,5.5888039 14.4111961,2 10,2 Z" fill-rule="nonzero"></path>
                            <path d="M10.8090692,11.9163783 L9.19093079,11.9163783 L9.19093079,11.0679777 C9.19093079,10.6970904 9.2362764,10.4212471 9.32696897,10.2404395 C9.41766155,10.0596319 9.61575026,9.82087677 9.92124105,9.5241669 L10.9665871,8.50886787 C11.1861586,8.27706328 11.2959427,7.9896299 11.2959427,7.64655911 C11.2959427,7.30348832 11.1813854,7.01837295 10.9522673,6.79120445 C10.7231492,6.56403595 10.4272095,6.45045341 10.0644391,6.45045341 C9.70166883,6.45045341 9.39856924,6.55939993 9.15513126,6.77729624 C8.91169329,6.99519256 8.77088325,7.28494395 8.7326969,7.64655911 L7,7.64655911 C7.09546587,6.82133477 7.4272048,6.17460967 7.99522673,5.70636439 C8.56324866,5.23811912 9.27207212,5.004 10.1217184,5.004 C10.9713646,5.004 11.6634818,5.22884708 12.1980907,5.67854798 C12.7326996,6.12824889 13,6.7564299 13,7.56310987 C13,8.11944089 12.8424837,8.58304312 12.5274463,8.95393046 C12.3460611,9.17646287 12.2076377,9.33408762 12.1121718,9.42680946 C12.016706,9.51953129 11.8902156,9.63774986 11.7326969,9.78146871 C11.5751782,9.92518755 11.441528,10.0503602 11.3317422,10.1569903 C11.2219565,10.2636204 11.1336519,10.3540228 11.0668258,10.4282003 C10.8949872,10.6321883 10.8090692,10.9196217 10.8090692,11.290509 L10.8090692,11.9163783 Z M9.2987013,14.7094595 C9.0995661,14.5157648 9,14.2815329 9,14.0067568 C9,13.7319806 9.09740162,13.4954965 9.29220779,13.2972973 C9.48701396,13.0990981 9.72077786,13 9.99350649,13 C10.2662351,13 10.5021635,13.0968459 10.7012987,13.2905405 C10.9004339,13.4842352 11,13.7184671 11,13.9932432 C11,14.2680194 10.9025984,14.5045035 10.7077922,14.7027027 C10.512986,14.9009019 10.2792221,15 10.0064935,15 C9.73376487,15 9.49783649,14.9031541 9.2987013,14.7094595 Z"></path>
                        </g>
                    </g>
                </g>
            </g>
        </g>
    </g>
</svg>
