<svg width="8px" height="12px" viewBox="0 0 8 12" version="1.1" xmlns="http://www.w3.org/2000/svg" xmlns:xlink="http://www.w3.org/1999/xlink">
    <title>정렬 기능의 버튼 아이콘</title>
    <desc>
        -   크기 : 8px * 12px
    </desc>
    <defs>
        <style>
        g { display: none }
        g:target,
        g:target g,
        g:first-child { display: inline }
        </style>
    </defs>
    <g id="normal" stroke="none" stroke-width="1" fill="none" fill-rule="evenodd">
        <g transform="translate(-500.000000, -310.000000)">
            <g transform="translate(25.000000, 298.000000)">
                <g transform="translate(35.000000, 0.000000)"></g>
            </g>
            <g transform="translate(500.000000, 310.000000)">
                <polygon fill="#999999" points="4 0 8 5 0 5"></polygon>
                <polygon fill="#999999" points="4 12 0 7 8 7"></polygon>
            </g>
        </g>
    </g>

    <g id="asc" stroke="none" stroke-width="1" fill="none" fill-rule="evenodd">
        <g transform="translate(-500.000000, -310.000000)">
            <g transform="translate(25.000000, 298.000000)">
                <g transform="translate(35.000000, 0.000000)"></g>
            </g>
            <g transform="translate(500.000000, 310.000000)">
                <polygon fill="#000000" points="4 0 8 5 0 5"></polygon>
                <polygon fill="#999999" points="4 12 0 7 8 7"></polygon>
            </g>
        </g>
    </g>

    <g id="desc" stroke="none" stroke-width="1" fill="none" fill-rule="evenodd">
        <g transform="translate(-500.000000, -310.000000)">
            <g transform="translate(25.000000, 298.000000)">
                <g transform="translate(35.000000, 0.000000)"></g>
            </g>
            <g transform="translate(500.000000, 310.000000)">
                <polygon fill="#999999" points="4 0 8 5 0 5"></polygon>
                <polygon fill="#000000" points="4 12 0 7 8 7"></polygon>
            </g>
        </g>
    </g>
</svg>
