
<svg width="16px" height="16px" viewBox="0 0 16 16" version="1.1" xmlns="http://www.w3.org/2000/svg" xmlns:xlink="http://www.w3.org/1999/xlink">
    <!-- Generator: Sketch 48.2 (47327) - http://www.bohemiancoding.com/sketch -->
    <desc>Created with Sketch.</desc>
    <defs></defs>
    <g id="클라우드계정관리_20171121" stroke="none" stroke-width="1" fill="none" fill-rule="evenodd">
        <g id="AWS_클라우드-계정-관리_Edit" transform="translate(-298.000000, -339.000000)" fill="#959595">
            <g id="icon_info" transform="translate(298.000000, 339.000000)">
                <g id="Group-7">
                    <g id="Group-4" transform="translate(6.666667, 3.333333)">
                        <path d="M1.35416667,2.390625 C1.9265868,2.390625 2.390625,1.9265868 2.390625,1.35416667 C2.390625,0.781746535 1.9265868,0.317708333 1.35416667,0.317708333 C0.781746535,0.317708333 0.317708333,0.781746535 0.317708333,1.35416667 C0.317708333,1.9265868 0.781746535,2.390625 1.35416667,2.390625 Z" id="Oval-112"></path>
                        <polygon id="Line" fill-rule="nonzero" points="0.666666667 4.38194444 0.666666667 7.90972222 0.666666667 8.79166667 2 8.79166667 2 7.90972222 2 4.38194444 2 3.5 0.666666667 3.5"></polygon>
                    </g>
                    <path d="M8,15.571875 C12.1818311,15.571875 15.571875,12.1818311 15.571875,8 C15.571875,3.81816891 12.1818311,0.428125 8,0.428125 C3.81816891,0.428125 0.428125,3.81816891 0.428125,8 C0.428125,12.1818311 3.81816891,15.571875 8,15.571875 L8,15.571875 Z M8,14.4385417 C4.44409163,14.4385417 1.56145833,11.5559084 1.56145833,8 C1.56145833,4.44409163 4.44409163,1.56145833 8,1.56145833 C11.5559084,1.56145833 14.4385417,4.44409163 14.4385417,8 C14.4385417,11.5559084 11.5559084,14.4385417 8,14.4385417 L8,14.4385417 Z" id="Oval-112" fill-rule="nonzero"></path>
                </g>
            </g>
        </g>
    </g>
</svg>
