<?xml version="1.0" encoding="UTF-8"?>
<svg width="10px" height="11px" viewBox="0 0 10 11" version="1.1" xmlns="http://www.w3.org/2000/svg" xmlns:xlink="http://www.w3.org/1999/xlink">
    <!-- Generator: Sketch 48.1 (47250) - http://www.bohemiancoding.com/sketch -->
    <desc>연필모양의 오브제</desc>
    <defs></defs>
    <g id="Symbols" stroke="none" stroke-width="1" fill="none" fill-rule="evenodd">
        <g id="function/btn_edit" transform="translate(-5.000000, -5.000000)" fill="#FFFFFF">
            <g id="Group-20" transform="translate(5.000000, 5.000000)">
                <path d="M8,4.5 L2.97511938,9.79015919 C2.95196361,9.81562952 2.92880785,9.82836469 2.90565208,9.84109986 L0.289050484,10.9872648 C0.254316834,11 0.231161068,11 0.208005301,11 C0.150115885,11 0.103804353,10.9745297 0.05749282,10.9363242 C-0.000396595898,10.8726483 -0.0119744791,10.770767 0.0111812873,10.6816208 L1.05319077,7.80347323 C1.06476866,7.77800289 1.07634654,7.75253256 1.09950231,7.72706223 L6,2.5 L8,4.5 Z M9.81764834,1.28306802 C10.0607839,1.56324168 10.0607839,1.99623734 9.81764834,2.26367583 L8.75248309,3.43531114 L6.87686601,1.37221418 L7.94203126,0.200578871 C8.18516681,-0.0668596237 8.57881484,-0.0668596237 8.83352827,0.200578871 L9.81764834,1.28306802 L9.81764834,1.28306802 Z" id="edit-copy-2"></path>
            </g>
        </g>
    </g>
</svg>
