
<svg width="14px" height="14px" viewBox="0 0 14 14" version="1.1" xmlns="http://www.w3.org/2000/svg" xmlns:xlink="http://www.w3.org/1999/xlink">
    <!-- Generator: Sketch 47.1 (45422) - http://www.bohemiancoding.com/sketch -->
    <desc>팝업 x 버튼</desc>
    <defs>
		<style>
	        g { display: none }
	        g:target g,
	        g:target { display: inline }
        </style>
	</defs>
    <g id="gray" stroke="none" stroke-width="1" fill="none" fill-rule="evenodd">
        <g id="PO_Dashboard_영상-재생" transform="translate(-863.000000, -408.000000)" fill="#9D9D9D">
            <path d="M870.045091,413.718044 L864.893644,408.624161 L864.262429,408 L863,409.248322 L863.631215,409.872484 L868.796848,414.980393 L863.702383,420.13243 L863.078221,420.763644 L864.326544,422.026074 L864.950705,421.394859 L870.059197,416.228637 L875.106356,421.219396 L875.737571,421.843557 L877,420.595235 L876.368785,419.971073 L871.307441,414.966287 L876.297617,409.919718 L876.921779,409.288503 L875.673456,408.026074 L875.049295,408.657289 L870.045091,413.718044 Z" id="ico_close"></path>
        </g>
    </g>
	<g id="black" stroke="none" stroke-width="1" fill="none" fill-rule="evenodd">
        <g id="PO_Dashboard_영상-재생" transform="translate(-863.000000, -408.000000)" fill="#000000">
            <path d="M870.045091,413.718044 L864.893644,408.624161 L864.262429,408 L863,409.248322 L863.631215,409.872484 L868.796848,414.980393 L863.702383,420.13243 L863.078221,420.763644 L864.326544,422.026074 L864.950705,421.394859 L870.059197,416.228637 L875.106356,421.219396 L875.737571,421.843557 L877,420.595235 L876.368785,419.971073 L871.307441,414.966287 L876.297617,409.919718 L876.921779,409.288503 L875.673456,408.026074 L875.049295,408.657289 L870.045091,413.718044 Z" id="ico_close"></path>
        </g>
    </g>
</svg>
