<?xml version="1.0" encoding="UTF-8"?>
<svg version="1.1" xmlns="http://www.w3.org/2000/svg" xmlns:xlink="http://www.w3.org/1999/xlink">
    <title>돋보기 아이콘 </title>
    <desc>
    푸른색 타입에 알에 + 가 있음
    </desc>
    <defs></defs>

    <!-- 가운데 십자가 아이콘이 있음 -->
    <g id="lightblue_zoom_type" stroke="none" stroke-width="1" fill="none" fill-rule="evenodd">
        <g transform="translate(-946.000000, -651.000000)" fill-rule="nonzero" fill="#469cf8">
            <g transform="translate(946.000000, 651.000000)">
                <path d="M10.1600467,9.11200924 C10.9345794,8.15127021 11.3901869,6.93533487 11.3901869,5.62933025 C11.3901869,2.52193995 8.83878505,0 5.69509346,0 C2.55140187,0 0,2.52193995 0,5.62933025 C0,8.73672055 2.55140187,11.2586605 5.69509346,11.2586605 C6.95560748,11.2586605 8.125,10.8533487 9.06658879,10.1628176 L11.7091121,12.7748268 C11.8609813,12.9249423 12.0584112,13 12.2406542,13 C12.4228972,13 12.635514,12.9249423 12.7721963,12.7748268 C13.0759346,12.4745958 13.0759346,12.0092379 12.7721963,11.7090069 L10.1600467,9.11200924 Z M1.51869159,5.62933025 C1.51869159,3.34757506 3.38668224,1.50115473 5.69509346,1.50115473 C8.00350467,1.50115473 9.87149533,3.34757506 9.87149533,5.62933025 C9.87149533,7.91108545 7.98831776,9.75750577 5.69509346,9.75750577 C3.40186916,9.75750577 1.51869159,7.91108545 1.51869159,5.62933025 Z"></path>
                <path d="M7.375,4.875 L6.075,4.875 L6.075,3.625 C6.075,3.275 5.8,3 5.45,3 C5.1,3 4.825,3.275 4.825,3.625 L4.825,4.875 L3.625,4.875 C3.275,4.875 3,5.15 3,5.5 C3,5.85 3.275,6.125 3.625,6.125 L4.825,6.125 L4.825,7.375 C4.825,7.725 5.1,8 5.45,8 C5.8,8 6.075,7.725 6.075,7.375 L6.075,6.125 L7.375,6.125 C7.725,6.125 8,5.85 8,5.5 C8,5.15 7.7125,4.875 7.375,4.875 Z"></path>
            </g>
        </g>
    </g>
</svg>
