<?xml version="1.0" encoding="UTF-8"?>
<svg width="20px" height="20px" viewBox="0 0 20 20" version="1.1" xmlns="http://www.w3.org/2000/svg" xmlns:xlink="http://www.w3.org/1999/xlink">
    <!-- Generator: Sketch 54.1 (76490) - https://sketchapp.com -->
    <title>icon_cancle</title>
    <desc>Created with Sketch.</desc>
    <defs>
        <path d="M12,2 C6.47,2 2,6.47 2,12 C2,17.53 6.47,22 12,22 C17.53,22 22,17.53 22,12 C22,6.47 17.53,2 12,2 Z M17,15.59 L15.59,17 L12,13.41 L8.41,17 L7,15.59 L10.59,12 L7,8.41 L8.41,7 L12,10.59 L15.59,7 L17,8.41 L13.41,12 L17,15.59 Z" id="path-1"></path>
    </defs>
    <g id="Iconography" stroke="none" stroke-width="1" fill="none" fill-rule="evenodd">
        <g id="Icon-1" transform="translate(-788.000000, -3180.000000)">
            <g id="1.material_custom/cancel_24px" transform="translate(786.000000, 3178.000000)">
                <mask id="mask-2" fill="white">
                    <use xlink:href="#path-1"></use>
                </mask>
                <g id="navigation/cancel_24px" fill-rule="nonzero"></g>
                <g id="colors" stroke-width="1" fill-rule="evenodd" mask="url(#mask-2)" fill="#898D94">
                    <g id="#Palette/#Gray/*Gray-1">
                        <rect id="Rectangle-Copy-340" x="0" y="2.84217094e-14" width="24" height="24"></rect>
                    </g>
                </g>
            </g>
        </g>
    </g>
</svg>