<?xml version="1.0" encoding="UTF-8"?>
<svg width="20px" height="20px" viewBox="0 0 20 20" version="1.1" xmlns="http://www.w3.org/2000/svg" xmlns:xlink="http://www.w3.org/1999/xlink">
    <!-- Generator: Sketch 54.1 (76490) - https://sketchapp.com -->
    <title>icon_file_img</title>
    <desc>Created with Sketch.</desc>
    <g id="Iconography" stroke="none" stroke-width="1" fill="none" fill-rule="evenodd">
        <g id="Icon-2" transform="translate(-606.000000, -335.000000)">
            <g id="3.file-format/img_24px" transform="translate(604.000000, 333.000000)">
                <rect id="ICON-Copy-6" x="0" y="0" width="24" height="24"></rect>
                <path d="M2,2 L22,2 L22,22 L2,22 L2,2 Z M18.2225267,6 L5.7778949,6 C5.3482608,6 5,6.38299845 5,6.85548686 L5,17.1445131 C5,17.6170015 5.3482608,18 5.7778949,18 L18.2221051,18 C18.6517392,18 19,17.6170015 19,17.1445131 L19,6.85548686 C19,6.38253478 18.6521608,6 18.2225267,6 Z M15.385748,12.1147437 C15.0987019,11.7724539 14.6330494,11.7724539 14.3456047,12.1147437 L13.1651279,13.5224104 L11.8112274,15.1359264 C11.7051798,15.2623835 11.5329522,15.2623835 11.4269046,15.1359264 C11.320857,15.0094694 11.320857,14.8040955 11.4269046,14.6776384 L12.7804064,13.063647 L9.97134195,9.71396114 C9.68429591,9.37167136 9.21864344,9.37167136 8.93119872,9.71396114 L5.875,12.4603613 L5.875,6.92307692 L18.125,6.92307692 L18.125,14.4831988 L15.385748,12.1147437 Z M14,9 C14,9.55222222 14.4477778,10 15,10 C15.5522222,10 16,9.55222222 16,9 C16,8.44777778 15.5522222,8 15,8 C14.4477778,8 14,8.44777778 14,9 Z" id="ic_img" fill="#FFB000" fill-rule="evenodd"></path>
            </g>
        </g>
    </g>
</svg>