<?xml version="1.0" encoding="UTF-8"?>
<svg width="20px" height="20px" viewBox="0 0 20 20" version="1.1" xmlns="http://www.w3.org/2000/svg" xmlns:xlink="http://www.w3.org/1999/xlink">
    <!-- Generator: Sketch 54.1 (76490) - https://sketchapp.com -->
    <title>icon_file_txt</title>
    <desc>Created with Sketch.</desc>
    <g id="Iconography" stroke="none" stroke-width="1" fill="none" fill-rule="evenodd">
        <g id="Icon-2" transform="translate(-350.000000, -335.000000)">
            <g id="3.file-format/txt_24px" transform="translate(348.000000, 333.000000)">
                <rect id="ICON-Copy-2" x="0" y="0" width="24" height="24"></rect>
                <path d="M2,2 L22,2 L22,22 L2,22 L2,2 Z M7,6 L7,18 L17,18 L17,6 L7,6 Z M9,9 L15,9 L15,10 L9,10 L9,9 Z M9,12 L15,12 L15,13 L9,13 L9,12 Z M9,15 L15,15 L15,16 L9,16 L9,15 Z" id="ic_txt" fill="#B4B4B4" fill-rule="evenodd"></path>
            </g>
        </g>
    </g>
</svg>