<?xml version="1.0" encoding="UTF-8"?>
<svg width="18px" height="18px" viewBox="0 0 18 18" version="1.1" xmlns="http://www.w3.org/2000/svg" xmlns:xlink="http://www.w3.org/1999/xlink">
    <!-- Generator: Sketch 54.1 (76490) - https://sketchapp.com -->
    <title>icon_vendor_azure</title>
    <desc>Created with Sketch.</desc>
    <g id="Iconography" stroke="none" stroke-width="1" fill="none" fill-rule="evenodd">
        <g id="Icon-2" transform="translate(-223.000000, -211.000000)">
            <g id="2.vendor/azure_24px" transform="translate(220.000000, 208.000000)">
                <rect id="ICON" x="0" y="0" width="24" height="24"></rect>
                <g id="2.vendor/azure" stroke-width="1" fill-rule="evenodd" transform="translate(3.000000, 3.000000)">
                    <path d="M0,0.0183075224 C0.105578884,-0.00569020609 0.211157768,-0.000890660397 0.321535693,0.00395688075 C2.87942412,0.00395688075 5.44211158,-0.000938655854 8,0.00395688075 L8,7.99520045 C5.33653269,8.00475155 2.67306539,7.99520045 0.00959808038,8 C-0.00484703059,5.34100369 0.0143971206,2.67725583 0,0.0183075224" id="Fill-1" fill="#F25022"></path>
                    <path d="M10,0.0149559317 C10.0911818,-0.00422735739 10.1871626,0.000520506655 10.2783443,0.000520506655 C12.8554289,0.00541224536 15.4277145,0.000520506655 18,0.00541224536 C18,2.6670936 17.995201,5.32877496 18,7.98556457 C15.3413317,8.00954369 12.6778644,7.98076875 10.0191962,8 C9.98560288,7.87056076 10.0095981,7.73143395 10,7.59715093 C10,5.06980056 10.0095981,2.54230631 10,0.0149559317" id="Fill-5" fill="#7FBA00"></path>
                    <path d="M0.0017952214,14.3382803 C0.0065960646,12.8937385 -0.00780646501,11.4443978 0.0065960646,10 C2.67106404,10.004751 5.33553202,10 8,10.004751 L8,17.995057 C5.33553202,18 2.67106404,17.995057 0.0113969078,18 C-0.00785447344,16.7809624 0.0065960646,15.5620209 0.0017952214,14.3382803" id="Fill-9" fill="#00A4EF"></path>
                    <path d="M10,10.0163171 C10.1055789,9.9923277 10.2159568,10.0018755 10.3311338,10.0018755 L17.8608278,10.0018755 C17.8944211,10.0066734 17.9664067,10.0066734 18,10.0115192 C17.995201,12.6743462 18,15.3322792 18,17.9951062 C16.0803839,18 14.1655669,17.9951062 12.2459508,18 C11.4973005,17.9903562 10.7486503,18.0095958 10,17.9903562 C10.004751,15.3322792 10.004751,12.6743462 10,10.0163171" id="Fill-13" fill="#FFB900"></path>
                </g>
            </g>
        </g>
    </g>
</svg>