<?xml version="1.0" encoding="UTF-8"?>
<svg width="20px" height="20px" viewBox="0 0 20 20" version="1.1" xmlns="http://www.w3.org/2000/svg" xmlns:xlink="http://www.w3.org/1999/xlink">
    <!-- Generator: Sketch 54.1 (76490) - https://sketchapp.com -->
    <title>icon_file_ppt</title>
    <desc>Created with Sketch.</desc>
    <g id="Iconography" stroke="none" stroke-width="1" fill="none" fill-rule="evenodd">
        <g id="Icon-2" transform="translate(-478.000000, -335.000000)">
            <g id="3.file-format/ppt_24px" transform="translate(476.000000, 333.000000)">
                <rect id="ICON-Copy-4" x="0" y="0" width="24" height="24"></rect>
                <path d="M2,2 L22,2 L22,22 L2,22 L2,2 Z M9,16.8415493 C9,16.9366197 9.06603774,17 9.16509434,17 L10.4198113,17 C10.5188679,17 10.5849057,16.9366197 10.5849057,16.8415493 L10.5849057,12.8785211 L13.259434,12.8785211 C14.7617925,12.8785211 16,11.7376761 16,9.96302817 C16,8.18838028 14.7617925,7 13.259434,7 L9.16509434,7 C9.06603774,7 9,7.06338028 9,7.1584507 L9,16.8415493 Z M13.0943396,11.4841549 L10.5849057,11.4841549 L10.5849057,8.47359155 L13.0943396,8.47359155 C13.8042453,8.47359155 14.4150943,8.93309859 14.4150943,9.97887324 C14.4150943,10.9929577 13.8042453,11.4841549 13.0943396,11.4841549 Z" id="ic_ppt" fill="#D14424" fill-rule="evenodd"></path>
            </g>
        </g>
    </g>
</svg>