<?xml version="1.0" encoding="UTF-8"?>
<svg width="20px" height="20px" viewBox="0 0 20 20" version="1.1" xmlns="http://www.w3.org/2000/svg" xmlns:xlink="http://www.w3.org/1999/xlink">
    <title>psychology-24px</title>
    <g id="Anomaly-Cost-Detection" stroke="none" stroke-width="1" fill="none" fill-rule="evenodd">
        <g id="CM_Edit-Widget_AI-Rule" transform="translate(-980.000000, -119.000000)">
            <g id="psychology-24px" transform="translate(980.000000, 119.000000)">
                <rect id="Rectangle" x="0.289855072" y="0.217391304" width="19.1304348" height="19.1304348"></rect>
                <g id="Group-9" transform="translate(2.137879, 1.467391)" fill="#7E8793" fill-rule="nonzero">
                    <path d="M8.65365621,4.08562073e-14 C5.25382918,4.08562073e-14 2.38808407,2.23333333 2.22489237,5.625 L0.0922735965,8.5 C-0.134381539,8.8025 0.0832073911,9.23333333 0.454921813,9.23333333 L2.22489237,9.21875 L2.30731242,11.9166667 C2.30731242,12.925 3.12327091,13.75 4.1205535,13.75 L4.86212148,13.75 L4.86212148,16.5326087 L11.8621215,16.5326087 L11.8621215,12.21 C14.001746,11.1833333 15,8.97416667 15,6.41666667 C15,2.86916667 12.1622777,4.08562073e-14 8.65365621,4.08562073e-14 Z" id="Path"></path>
                </g>
                <path d="M12.4233577,8.875 C12.6494533,8.785 12.8521596,8.6575 13.0470695,8.515 L13.0314767,8.5375 L13.8189128,8.83 C13.9982299,8.8975 14.2009363,8.83 14.294493,8.665 L14.9493904,7.57 C15.0429471,7.4125 15.0039652,7.2025 14.8558336,7.09 L14.1931399,6.58 L14.1775471,6.6025 C14.1931399,6.4825 14.2165291,6.3625 14.2165291,6.2425 C14.2165291,6.1225 14.1931399,6.0025 14.1775471,5.8825 L14.1931399,5.905 L14.8558336,5.395 C15.0039652,5.2825 15.0429471,5.0725 14.9493904,4.915 L14.294493,3.82 C14.2009363,3.6625 13.9982299,3.5875 13.8189128,3.655 L13.0314767,3.9475 L13.0470695,3.97 C12.8521596,3.8425 12.6494533,3.715 12.4233577,3.625 L12.290819,2.815 C12.2674298,2.635 12.1037055,2.5 11.9087955,2.5 L10.5990008,2.5 C10.4040909,2.5 10.2403666,2.635 10.2169774,2.815 L10.0844386,3.625 C9.85834313,3.715 9.65563681,3.8425 9.46072689,3.985 L9.47631968,3.9625 L8.68108719,3.67 C8.50177006,3.6025 8.29906373,3.67 8.20550697,3.835 L7.55060962,4.93 C7.45705286,5.0875 7.49603484,5.2975 7.64416638,5.41 L8.30686013,5.92 L8.32245292,5.8975 C8.30686013,6.01 8.28347094,6.13 8.28347094,6.25 C8.28347094,6.37 8.30686013,6.49 8.32245292,6.61 L8.30686013,6.5875 L7.64416638,7.0975 C7.49603484,7.21 7.45705286,7.42 7.55060962,7.5775 L8.20550697,8.6725 C8.29906373,8.83 8.50177006,8.905 8.68108719,8.8375 L9.46852328,8.545 L9.46072689,8.515 C9.65563681,8.6575 9.85834313,8.785 10.0844386,8.875 L10.2169774,9.6775 C10.2403666,9.865 10.4040909,10 10.5990008,10 L11.9087955,10 C12.1037055,10 12.2674298,9.865 12.290819,9.685 L12.4233577,8.875 Z" id="Path" fill="#FFFFFF"></path>
                <path d="M10,6.25 C10,5.5625 10.5625,5 11.25,5 C11.9375,5 12.5,5.5625 12.5,6.25 C12.5,6.9375 11.9375,7.5 11.25,7.5 C10.5625,7.5 10,6.9375 10,6.25 Z" id="Path" fill="#7E8793"></path>
            </g>
        </g>
    </g>
</svg>